# xmcd
#
# Track frame offsets:
#        150
#        27677
#        40415
#        62742
#        88100
#        102302
#        125127
#        145587
#        164892
#        188255
#        215665
#        228860
#        245095
#        263370
#        286710
#        333975
#
# Disc length: 4795 seconds
#
# Revision: 0
# Processed by: cddbd v1.5.1PL2 Copyright (c) Steve Scherf et al.
# Submitted via: ExactAudioCopy v0.95a4
#
DISCID=ea12b910
DTITLE=Tobynation - Launch Party! Techno Flight 2.0
DYEAR=2002
DGENRE=Techno
TTITLE0=2Raumwohnung - Mit Viel Gluck(We Love It Remix By The F.O.R.M)
TTITLE1=Takkyu Ishino - La Peggi
TTITLE2=Blaze Ft. Palmer Brown - My Beat(Ambassador Remix)
TTITLE3=Technasia - Acid Storm
TTITLE4=Marco Carola - Effective
TTITLE5=Gaiden - Point Blank(Speedy J Remix)
TTITLE6=Sven Vath - Shock Ralley
TTITLE7=Green Velvet - La La Land(Dave Clarke Remix)
TTITLE8=Andreas Kauffet - Alternate 2K1
TTITLE9=Kaito - Awakening
TTITLE10=Supercruizer - Para-Shooting(Kai Randy Michel Remix Version 3
TTITLE10=)
TTITLE11=Golden Boy With Miss Kittin - Rippin Kitten(Beroshima Mix)
TTITLE12=Woody - Modern Body Music(Pop Up Mix)
TTITLE13=Mijk Van Dijk - How Deep Is Your Love(Fabrice Lig Remix)
TTITLE14=Funk D' Voids - Diabla(Heavenly Mix)
TTITLE15=Data
EXTD=
EXTT0=
EXTT1=
EXTT2=
EXTT3=
EXTT4=
EXTT5=
EXTT6=
EXTT7=
EXTT8=
EXTT9=
EXTT10=
EXTT11=
EXTT12=
EXTT13=
EXTT14=
EXTT15=
PLAYORDER=
